<svg style="fill:#1a1a1a" xmlns="http://www.w3.org/2000/svg" version="1.1" viewBox="0 0 3504.8 967">
	  <g class="beeldmerk">
	 	 <path fill="#753bfb" d="M37.6,517.2c7,.4,19.8.4,46.3.4h150.5c19.6,0,32.6,0,33,0,18.8,0,34.1-15.3,34.1-34.1,0-99.9,81.3-181.5,181.3-181.9,16.5,0,30.9-11.4,34.1-26.9,2.1-10.2-.4-20.7-6.9-28.6-6.5-8-16.1-12.6-26.3-12.6-13.9-.2-28.5,1.2-49.1,4.9-54.4,11.1-104.1,40.1-139.9,81.6-22.5,25.7-40,57.3-50.6,91.3-.8,2.9-2.6,10.9-4.2,18.8-2.4,11.3-12.3,19.4-23.8,19.4h0c-15.7,0-27.1-14.6-23.7-30,22-99.1,91.7-179.8,188.4-215.5,110.3-40.7,230.6-14.4,314.2,68.7,16,15,36.2,11.2,47.8-.3,11.5-11.5,15.4-31.6.2-48-113.2-115.7-297.3-141.4-437.8-61.1-99.9,56.1-167.4,154.1-184.2,265.7-1.8,11.8-12,20.6-24,20.6s-26.3-13.1-24.2-27.7c11.5-77,44.2-148.6,95.9-208.6,25.2-29.4,54.6-55.2,87.2-76.7,35.9-23.6,74.5-41.2,114.7-52.5,108.5-31.1,222.5-16.8,321.1,40.4,79.9,46.4,140.4,115.2,175.1,199.2,5.2,12.5,17.4,20.6,31.2,20.6s26.9-8.6,32-22.5c3.1-8.3,2.3-17.6-1.1-25.8-24.3-57.8-59.2-109.7-103.6-154.1C686.2,1.5,484.9-38.1,299.9,38.3,114.5,114.9-.4,285.5,0,483.5c0,9.1,3.5,17.7,10,24.1,6.4,6.4,15,10,24.1,10l3.5-.4Z"/>
	 	 <path fill="#753bfb" d="M930.2,450.2c-7-.4-19.8-.4-46.3-.4h-150.5c-19.6,0-32.6,0-33,0-18.8,0-34.1,15.3-34.1,34.1,0,99.9-81.3,181.5-181.3,181.9-16.5,0-30.9,11.4-34.1,26.9-2.1,10.2.4,20.7,6.9,28.6,6.5,8,16.1,12.6,26.3,12.6,13.9.2,28.5-1.2,49.1-4.9,54.4-11.1,104.1-40.1,139.9-81.6,22.5-25.7,40-57.3,50.6-91.3.8-2.9,2.6-10.9,4.2-18.8,2.4-11.3,12.3-19.4,23.8-19.4h0c15.7,0,27.1,14.6,23.7,30-22,99.1-91.7,179.8-188.4,215.5-110.3,40.7-230.6,14.4-314.2-68.7-16-15-36.2-11.2-47.8.3-11.5,11.5-15.4,31.6-.2,48,113.2,115.7,297.3,141.4,437.8,61.1,99.9-56.1,167.4-154.1,184.2-265.7,1.8-11.8,12-20.6,24-20.6s26.3,13.1,24.2,27.7c-11.5,77-44.2,148.6-95.9,208.6-25.2,29.4-54.6,55.2-87.2,76.7-35.9,23.6-74.5,41.2-114.7,52.5-108.5,31.1-222.5,16.8-321.1-40.4-79.9-46.4-140.4-115.2-175.1-199.2-5.2-12.5-17.4-20.6-31.2-20.6s-26.9,8.6-32,22.5c-3.1,8.3-2.3,17.6,1.1,25.8,24.3,57.8,59.2,109.7,103.6,154.1,139.1,140.3,340.4,179.9,525.4,103.5,185.4-76.6,300.3-247.2,299.9-445.2,0-9.1-3.5-17.7-10-24.1-6.4-6.4-15-10-24.1-10l-3.5.4Z"/>
	  </g>
	  <path fill="#1a1a1a" d="M1882.9,363c15.5-26.2,23.3-56.5,23.3-90.7s-7.6-64.5-22.7-90.7c-15.1-26.2-35.8-46.5-62-60.8-26.2-14.3-55.5-21.5-87.7-21.5s-61.5,7.2-87.7,21.5c-26.2,14.3-46.9,34.6-62,60.8-15.1,26.2-22.7,56.5-22.7,90.7s7.4,64.5,22.1,90.7c14.7,26.2,35,46.5,60.8,60.8,25.8,14.3,54.8,21.5,87.1,21.5s62.2-7.2,88.6-21.5c26.4-14.3,47.4-34.6,62.9-60.8ZM1807,326.8c-8.1,14.9-18.9,26.1-32.4,33.6-13.5,7.5-27.9,11.2-43.3,11.2-24.2,0-44.3-8.6-60.2-25.7-15.9-17.1-23.9-41.6-23.9-73.5s8.2-56.3,24.5-73.5c16.3-17.1,36.6-25.7,60.8-25.7s44.7,8.6,61.4,25.7c16.7,17.1,25.1,41.6,25.1,73.5s-4,39.5-12.1,54.4Z"/>
	  <path fill="#1a1a1a" d="M2480.6,806c-11.5-13.5-25.1-23.5-40.8-29.9-15.7-6.4-35.7-12.7-59.9-18.8-23.8-6-41.3-12-52.6-17.8-11.3-5.8-16.9-14.4-16.9-25.7s4.1-17.9,12.4-23.6c8.3-5.6,20.1-8.5,35.4-8.5s29.7,3.9,39.6,11.8c4.8,3.8,8.5,8.3,11.2,13.3,0,0,.1,0,.2,0,6.9,11.1,19.1,18.5,33.1,18.5,21.6,0,39.1-17.5,39.1-39.1s-4.6-20.9-11.9-28c-4-4.8-8.3-9.4-13.3-13.6-23.8-20-55.7-29.9-95.6-29.9s-50.5,4.4-70.5,13.3c-20,8.9-35.3,21-46,36.3-10.7,15.3-16,32.3-16,50.8s5.7,40.5,17.2,53.8c11.5,13.3,25.2,23.2,41.1,29.6,15.9,6.5,36.4,12.7,61.4,18.8,24.2,6.5,41.8,12.4,52.9,17.8,11.1,5.4,16.6,13.6,16.6,24.5s-4.5,18.4-13.6,24.8c-9.1,6.5-21.7,9.7-37.8,9.7s-30.4-4.2-41.4-12.7c-5-3.8-9.7-8.8-12.8-13.5-7-11-19.2-18.3-33.2-18.3-21.8,0-39.4,17.6-39.4,39.4s3.9,19.3,10.3,26.3c0,0,0,0,0,0,.1.1.3.3.4.4.8.9,1.6,1.6,2.5,2.4,11.1,11.1,24.4,20.5,40.4,27.7,21.8,9.9,46.4,14.8,73.8,14.8s49.9-4.3,69.9-13c20-8.7,35.3-20.7,46-36,10.7-15.3,16-32.7,16-52-.4-22.2-6.3-40-17.8-53.5Z"/>
	  <path fill="#1a1a1a" d="M3470.9,368.6s0,0,0,0h-.8c-.4,0-.8-.1-1.2-.1s-.8.1-1.2.1h-2.5c-12.9,0-22.1-2.5-27.5-7.6-5.5-5-8.2-13.2-8.2-24.5v-162.1h42.1c0,0,0-.2,0-.2,18.5-.8,33.3-15.9,33.3-34.6s-15.4-34.5-34.4-34.7c0,0,0,0,0,0h-.3s0,0,0,0,0,0,0,0h-40.6v-35.4c0,0-.1,0-.2,0,.2-1.6.5-3.2.5-4.9,0-23.6-19.1-42.7-42.7-42.7s-42.7,19.1-42.7,42.7.2,1.4.2,2.1c-.1,0-.3,0-.5,0v38.3h-2c0,0,0,.1,0,.2-1,0-1.9-.3-2.9-.3-19.2,0-34.7,15.6-34.7,34.7s15.6,34.7,34.7,34.7,1.5-.2,2.2-.2c0,.1,0,.3,0,.4h2.7v161.5c0,69.4,35.7,104,107.1,104h16.3c0,0,0-.1,0-.2.4,0,.9.1,1.3.1,19.7,0,35.7-16,35.7-35.7s-14.9-34.4-33.7-35.5Z"/>
	  <path fill="#1a1a1a" d="M2486.7,440.1c.4,0,.9.1,1.3.1,19.7,0,35.7-16,35.7-35.7s-14.9-34.4-33.7-35.5c0,0,0,0,0,0h-.8c-.4,0-.8-.1-1.2-.1s-.8.1-1.2.1h-2.5c-12.9,0-22.1-2.5-27.5-7.6-5.5-5-8.2-13.2-8.2-24.5v-162.1h42.1c0,0,0-.2,0-.2,18.5-.8,33.3-15.9,33.3-34.6s-15.4-34.5-34.4-34.7c0,0,0,0,0,0h-.3s0,0,0,0,0,0,0,0h-40.6v-35.4c0,0-.1,0-.2,0,.2-1.6.5-3.2.5-4.9,0-23.6-19.1-42.7-42.7-42.7s-42.7,19.1-42.7,42.7.2,1.4.2,2.1c-.1,0-.3,0-.5,0v38.3h-2c0,0,0,.1,0,.2-1,0-1.9-.3-2.9-.3-19.2,0-34.7,15.6-34.7,34.7s15.6,34.7,34.7,34.7,1.5-.2,2.2-.2c0,.1,0,.3,0,.4h2.7v161.5c0,69.4,35.7,104,107.1,104h16.3c0,0,0-.1,0-.2Z"/>
	  <path fill="#1a1a1a" d="M2278.7,396s0,0,.1,0v-152.7c0-45.2-12.3-80.4-36.9-105.6-24.6-25.2-56.9-37.8-96.8-37.8s-40.2,4.1-57.8,12.4c-17.5,8.3-32,19.7-43.3,34.2v-1.6c0,.1-.2.2-.2.4,0-.8.3-1.6.3-2.5,0-23.4-19-42.3-42.3-42.3s-42.3,19-42.3,42.3.2,1.2.2,1.8c0,0-.1,0-.2,0v254.1c0,0,.1,0,.2.1.7,22.8,19.3,41,42.2,41s41.6-18.4,42.2-41.3c0,0,0,0,0,0v-.8c0-.1,0-.2,0-.3s0-.2,0-.3v-142.4c0-26.6,6.8-47.1,20.3-61.4,13.5-14.3,32-21.5,55.4-21.5s41.1,7.2,54.4,21.5c13.3,14.3,20,34.8,20,61.4v144.8c0,0,.2,0,.2,0,1.1,22.4,19.5,40.2,42.1,40.2s42.3-19,42.3-42.3-.1-.9-.1-1.4Z"/>
	  <path fill="#1a1a1a" d="M3259.1,396.6s0,0,.1,0v-152.7c0-45.2-12.3-80.4-36.9-105.6-24.6-25.2-56.9-37.8-96.8-37.8s-40.2,4.1-57.8,12.4c-17.5,8.3-32,19.7-43.3,34.2v-1.6c0,.1-.2.2-.2.4,0-.8.3-1.6.3-2.5,0-23.4-19-42.3-42.3-42.3s-42.3,19-42.3,42.3.2,1.2.2,1.8c0,0-.1,0-.2,0v254.1c0,0,.1,0,.2.1.7,22.8,19.3,41,42.2,41s41.6-18.4,42.2-41.3c0,0,0,0,0,0v-.8c0-.1,0-.2,0-.3s0-.2,0-.3v-142.4c0-26.6,6.8-47.1,20.3-61.4,13.5-14.3,32-21.5,55.4-21.5s41.1,7.2,54.4,21.5c13.3,14.3,20,34.8,20,61.4v144.8c0,0,.2,0,.2,0,1.1,22.4,19.5,40.2,42.1,40.2s42.3-19,42.3-42.3-.1-.9-.1-1.4Z"/>
	  <path fill="#1a1a1a" d="M2164.5,912.7v-248.5c0,0-.1,0-.2,0,0-.5.2-1,.2-1.6,0-23.5-19.1-42.6-42.6-42.6s-42.6,19.1-42.6,42.6,0,.5,0,.7c0,0-.2-.1-.2-.2v4.6c-11.3-15.3-26.3-28-45.1-38.1-18.8-10.1-40.6-15.1-65.6-15.1s-54.5,7.1-77.7,21.2c-23.2,14.1-41.5,34.3-55.1,60.5-13.5,26.2-20.3,56.3-20.3,90.1s6.7,64.6,20.3,91c13.5,26.4,31.9,46.9,55.1,61.4,23.2,14.5,48.9,21.8,77.1,21.8s47.1-5.1,66.2-15.4c19.1-10.3,34.2-23.3,45.1-39v4.9c.1,0,.2-.1.3-.2,0,.7-.2,1.3-.2,2,0,23.5,19.1,42.6,42.6,42.6s41.7-18.3,42.4-41.2c0,0,0,0,.1,0v-1.3s0,0,0,0,0,0,0,0ZM2067.1,840.4c-8.1,14.7-19,26-32.7,33.9-13.7,7.9-28.4,11.8-44.2,11.8s-29.7-4-43.3-12.1c-13.5-8.1-24.4-19.7-32.7-34.8-8.3-15.1-12.4-32.8-12.4-52.9s4.1-37.6,12.4-52.3c8.3-14.7,19.1-25.9,32.4-33.6,13.3-7.7,27.8-11.5,43.6-11.5s30.5,3.9,44.2,11.8c13.7,7.9,24.6,19.2,32.7,33.9,8.1,14.7,12.1,32.4,12.1,52.9s-4,38.2-12.1,52.9Z"/>
	  <path fill="#1a1a1a" d="M1785.5,768.4c0-1.4-.4-2.8-.5-4.2-.1-1-.1-2.1-.3-3.1-2.4-24.2-8.7-46.2-19.6-65.9-13.9-25.2-33.5-44.7-58.7-58.4-25.2-13.7-53.7-20.6-85.6-20.6s-62.3,7.1-87.7,21.2c-25.4,14.1-45.2,34.3-59.3,60.5-14.1,26.2-21.2,56.7-21.2,91.3s7.2,64.5,21.5,90.7c14.3,26.2,34.3,46.5,59.9,60.8,25.6,14.3,54.5,21.1,86.8,21.5,64.8.7,98.3-23.5,131.1-55.9,0,0,14.7-18.4,14.7-30.9,0-21.9-17.7-39.6-39.6-39.6s-23.3,5.4-30.6,14.2c0-.1,0,0,0,0-13.6,17.3-24.3,42.3-77.4,42-21.8-.1-40.1-6.9-55.1-20.6-14.9-13.7-23.4-32.7-25.4-56.9h200.5c0,0,0-.1,0-.2.7,0,1.4.2,2.1.2,24.6,0,44.5-19.9,44.5-44.5s-.2-1.2-.2-1.9c0,0,0,0,0,0ZM1565.4,704.9c14.3-12.7,32-19.1,52.9-19.1s40.9,6.6,56.3,19.7c15.3,13.1,23.2,30.5,23.6,52.3h-159.1c3.2-22.6,12-40.2,26.3-52.9Z"/>
	  <path fill="#1a1a1a" d="M2886,250.7c0-1.4-.4-2.8-.5-4.2-.1-1-.1-2.1-.3-3.1-2.4-24.2-8.7-46.2-19.6-65.9-13.9-25.2-33.5-44.7-58.7-58.4-25.2-13.7-53.7-20.6-85.6-20.6s-62.3,7.1-87.7,21.2c-25.4,14.1-45.2,34.3-59.3,60.5-14.1,26.2-21.2,56.7-21.2,91.3s7.2,64.5,21.5,90.7c14.3,26.2,34.3,46.5,59.9,60.8,25.6,14.3,54.5,21.1,86.8,21.5,64.8.7,98.3-23.5,131.1-55.9,0,0,14.7-18.4,14.7-30.9,0-21.9-17.7-39.6-39.6-39.6s-23.3,5.4-30.6,14.2c0-.1,0,0,0,0-13.6,17.3-24.3,42.3-77.4,42-21.8-.1-40.1-6.9-55.1-20.6-14.9-13.7-23.4-32.7-25.4-56.9h200.5c0,0,0-.1,0-.2.7,0,1.4.2,2.1.2,24.6,0,44.5-19.9,44.5-44.5s-.2-1.2-.2-1.9c0,0,0,0,0,0ZM2666,187.3c14.3-12.7,32-19.1,52.9-19.1s40.9,6.6,56.3,19.7c15.3,13.1,23.2,30.5,23.6,52.3h-159.1c3.2-22.6,12-40.2,26.3-52.9Z"/>
	  <path fill="#1a1a1a" d="M1464.6,307c-14.6,0-27.4,7.3-35.2,18.4,0,0-18.2,20.2-29.8,27.1-17.5,10.3-37.8,15.4-60.8,15.4s-46.5-5.7-65.6-17.2c-19.2-11.5-34.1-27.8-44.8-49-10.7-21.2-16-45.7-16-73.5s5.3-52.8,16-73.8c10.7-21,25.6-37.2,44.8-48.7,19.2-11.5,41-17.2,65.6-17.2s43.3,5,60.8,15.1c11.5,6.6,21.1,15.6,29.2,26.5,7.7,11.6,20.9,19.3,35.8,19.3,23.7,0,43-19.2,43-43s-5.4-23.7-14-31.5c0-.1-19-18.6-30.2-26.3-35.5-24.2-76.8-36.3-124-36.3s-76.7,9.2-109.2,27.5c-32.5,18.4-58.1,44-76.8,76.8-18.8,32.9-28.1,70.1-28.1,111.6s9.4,78.6,28.1,111.3c18.8,32.7,44.4,58.2,76.8,76.5,32.5,18.4,68.9,27.5,109.2,27.5s89-12,124.3-36c11.5-7.9,31-26.8,31-26.9,8-7.8,12.9-18.6,12.9-30.7,0-23.7-19.2-43-43-43ZM1457.5,363.9c-8.2,9.1-17.3,17.1-27.3,23.7-25.8,17.1-58.9,25.7-98.4,25.7s-57.7-7-81.7-20.7c-12.8-7.3-24.2-16.7-34.4-27.7-.9-1-1.7-1.9-1.7-3.2,0-2.3,1.8-4.1,4.1-4.1s2.2.5,2.9,1.2c0,0,0,0,0,0,10.3,11.5,22.1,21,35.2,28.3,22.8,12.6,48.2,19,75.6,19s68.5-8.3,93.4-24.5c9.9-6.5,18.9-14.3,26.8-23h0c0,0,0,0,.1-.1,0,0,0,0,0,0,.7-.6,1.6-1,2.6-1,2.1,0,3.8,1.7,3.8,3.8s-.4,1.9-1,2.6c0,0,0,0,0,0Z"/>
	  <g>
		<path fill="#1a1a1a" d="M2781.1,848.8s0,0,0,0c0,0,0,0,0,0Z"/>
		<path fill="#1a1a1a" d="M2823.7,813.2c.7,0,1.4.2,2.1.2,24.6,0,44.5-19.9,44.5-44.5s-.2-1.2-.2-1.9c0,0,0,0,0,0,0-1.4-.4-2.8-.5-4.2-.1-1-.1-2.1-.3-3.1-2.4-24.2-8.7-46.2-19.6-65.9-13.9-25.2-33.5-44.7-58.7-58.4-25.2-13.7-53.7-20.6-85.6-20.6s-62.3,7.1-87.7,21.2c-25.4,14.1-45.2,34.3-59.3,60.5-14.1,26.2-21.2,56.7-21.2,91.3s7.2,64.5,21.5,90.7c14.3,26.2,34.3,46.5,59.9,60.8,25.6,14.3,54.5,21.1,86.8,21.5,64.8.7,98.3-23.5,131.1-55.9,0,0,14.7-18.4,14.7-30.9,0-21.9-17.7-39.6-39.6-39.6s-23.3,5.4-30.6,14.2c0,0,0,0,0,0h0s0,0,0,0c0,0,0,0,0,0,0,0,0,0,0,0-13.6,17.3-24.3,42.3-77.4,42-21.8-.1-40.1-6.9-55.1-20.6-14.9-13.7-23.4-32.7-25.4-56.9h200.5c0,0,0-.1,0-.2ZM2637.4,902.7c19.9,12.6,42.1,19,66,19s59.8-8.3,81.4-24.5c8.7-6.5,16.5-14.3,23.4-23,0,0,0,0,0,0,.6-.7,1.6-1.2,2.6-1.2,2,0,3.5,1.6,3.5,3.5s-.3,1.4-.7,2c0,0,0,0,0,0-.1.2-.3.3-.4.5,0,0,0,0,0,0-7.2,9.3-15.3,17.5-24.2,24.2-22.5,17.1-51.4,25.7-85.9,25.7s-50.3-7-71.3-20.7c-11.4-7.5-21.7-17.2-30.7-28.6,0,0,0-.1-.1-.2,0-.1-.2-.2-.3-.3,0,0,0,0,0,0-.5-.6-.8-1.4-.8-2.2,0-2.1,1.7-3.8,3.8-3.8s2.1.5,2.8,1.4c0,0,0,0,0,0,9,11.5,19.2,21,30.5,28.2ZM2623.8,756.5c3.2-22.6,12-40.2,26.3-52.9,14.3-12.7,32-19.1,52.9-19.1s40.9,6.6,56.3,19.7c15.3,13.1,23.2,30.5,23.6,52.3h-159.1Z"/>
	  </g>
	  <path fill="#1a1a1a" d="M1267.4,911.1"/>
	  <path fill="#1a1a1a" d="M1394.9,887.9c-.8,0-23,.1-41.2.3h-56.2c-8.2.1-14.2.2-14.2.2-22.8-2-40.8-20.8-41.1-44.1,0,0,.4-267.6.4-268.9,0-23.4-19-42.4-42.4-42.4s-42.4,19-42.4,42.4-.3,335.2-.3,335.2c0,0,0,0,0,0,0,0,0,0,0,0,0,24.9,20.2,45.2,45.2,45.2s53.1,0,94.8-.1h56.2c23.3,0,41.4,0,41.4,0,0-.1,0,.1,0,0,18.5,0,33.5-15.5,33.5-34s-15-33.6-33.6-33.6Z"/>
	</svg>